<svg width="90" height="79" viewBox="0 0 90 79" fill="none" xmlns="http://www.w3.org/2000/svg">
<path fill-rule="evenodd" clip-rule="evenodd" d="M80.4195 54.61C74.3366 68.456 60.5007 78.1304 44.402 78.1304C23.3378 78.1304 6.142 61.5675 5.12764 40.7546L2.59168 43.7793C2.071 44.4003 1.14547 44.4817 0.524452 43.961C-0.0965652 43.4403 -0.177902 42.5148 0.342781 41.8937L6.52056 34.5255L13.7524 41.268C14.3452 41.8206 14.3777 42.7492 13.825 43.3419C13.2724 43.9347 12.3438 43.9672 11.7511 43.4146L8.03259 39.9476C8.63434 59.5166 24.6871 75.1956 44.402 75.1956C59.2948 75.1956 72.1011 66.2482 77.7326 53.4295C78.0585 52.6876 78.9242 52.3503 79.6662 52.6763C80.4082 53.0022 80.7454 53.868 80.4195 54.61ZM48.1137 51.4343H40.5929V57.6082H36.3049V51.4343H31.6577V47.8872H36.3049V44.8115H31.6577V41.2868H36.3049V24.9205H48.3607C51.8629 24.9205 54.6392 25.811 56.6897 27.5921C58.7401 29.3731 59.7654 31.7828 59.7654 34.8211C59.7654 38.009 58.7776 40.4711 56.8019 42.2072C54.8413 43.9284 52.05 44.7965 48.428 44.8115H40.5929V47.8872H48.1137V51.4343ZM40.5929 41.2868H48.3607C50.6805 41.2868 52.4466 40.7405 53.6589 39.6479C54.8712 38.5553 55.4774 36.9613 55.4774 34.866C55.4774 32.9652 54.8488 31.4311 53.5916 30.2637C52.3344 29.0813 50.6356 28.4826 48.4954 28.4676H40.5929V41.2868ZM8.386 23.8578C14.4688 10.0117 28.3048 0.337379 44.4035 0.337379C65.5494 0.337379 82.7968 17.029 83.6889 37.9554L86.9346 34.3991C87.4809 33.8005 88.409 33.7581 89.0076 34.3045C89.6062 34.8508 89.6486 35.7789 89.1023 36.3775L82.3164 43.8127L74.3628 37.5303C73.7268 37.028 73.6185 36.1052 74.1208 35.4693C74.6232 34.8333 75.5459 34.725 76.1819 35.2273L80.7818 38.8607C80.3571 19.1334 64.2326 3.27216 44.4035 3.27216C29.5107 3.27216 16.7044 12.2196 11.0729 25.0382C10.747 25.7802 9.88123 26.1174 9.13925 25.7915C8.39728 25.4655 8.06004 24.5998 8.386 23.8578Z" fill="#FB6900"/>
</svg>
