<svg width="71" height="88" viewBox="0 0 71 88" fill="none" xmlns="http://www.w3.org/2000/svg">
<path fill-rule="evenodd" clip-rule="evenodd" d="M23.143 85.0106L17.3302 75.0752C16.9552 74.518 16.3927 74.1466 15.7364 74.1466H2.79834L20.176 47.0928L25.52 48.0213L29.6452 55.5425C30.489 57.3067 32.5516 58.0496 34.4267 57.3067L38.3643 55.5425L40.2394 58.7924L23.143 85.0106Z" fill="white"/>
<path fill-rule="evenodd" clip-rule="evenodd" d="M19.4678 45.4805L26.4671 46.6966L30.9515 54.8727L30.969 54.9095C31.4507 55.9166 32.6533 56.4166 33.8593 55.9532L38.9734 53.6619L41.9607 58.8395L23.0754 87.8009L16.0919 75.8645C16.0151 75.7581 15.9393 75.6938 15.8812 75.6588C15.8234 75.6239 15.7785 75.6142 15.7365 75.6142H0.111816L19.4678 45.4805ZM20.8844 48.7054L5.48501 72.6794H15.7365C16.9933 72.6794 17.9692 73.3967 18.5476 74.2559L18.5735 74.2943L23.2107 82.2205L38.5183 58.7456L37.7554 57.4234L34.9972 58.6592L34.9672 58.6711C32.4454 59.6701 29.5545 58.7 28.3407 56.2154L24.5731 49.3463L20.8844 48.7054Z" fill="#FB6900"/>
<path fill-rule="evenodd" clip-rule="evenodd" d="M52.7467 74.4916L46.6971 85.1217L25.5398 54.2133C25.4423 53.9234 25.3447 53.7301 25.1495 53.5368L23.0029 49.768L23.6859 49.4781L31.687 53.3435C32.2724 53.6335 32.8579 53.7301 33.4433 53.7301C34.8093 53.7301 36.1754 53.0536 36.8584 51.7974L41.2492 43.9697L47.1036 42.9067L67.8706 73.5253H54.4054C53.7224 73.5253 53.0394 73.9118 52.7467 74.4916Z" fill="white"/>
<path fill-rule="evenodd" clip-rule="evenodd" d="M47.7819 41.2925L70.6392 74.9929H54.4057C54.335 74.9929 54.2452 75.015 54.1641 75.0618C54.0819 75.1093 54.0568 75.1533 54.0569 75.1532L54.0404 75.1859L46.8121 87.8873L24.2143 54.8745L24.1494 54.6816C24.129 54.621 24.1155 54.5874 24.1082 54.5706L23.9743 54.4381L20.9121 49.0617L23.7254 47.8676L32.332 52.0256L32.3385 52.0288C32.6766 52.1962 33.028 52.2629 33.4436 52.2629C34.3584 52.2629 35.1821 51.8092 35.5695 51.0967L35.5741 51.0882L40.3076 42.6496L47.7819 41.2925ZM42.1913 45.2904L38.1428 52.5078C37.1626 54.3017 35.2577 55.1977 33.4436 55.1977C32.6904 55.1977 31.8734 55.0719 31.043 54.6622L26.1265 52.2869L26.3422 52.6655C26.5917 52.9552 26.7441 53.2497 26.8562 53.5383L46.5828 82.3566L51.4566 73.7925C52.0351 72.6864 53.2473 72.0581 54.4057 72.0581H65.1025L46.4258 44.5215L42.1913 45.2904Z" fill="#FB6900"/>
<path fill-rule="evenodd" clip-rule="evenodd" d="M34.8067 57.7071L26.0719 62.3718L21.27 53.7702L11.3757 53.017L12.0311 43.2094L4.11865 37.2775L10.0233 29.3778L6.60481 20.1504L15.884 16.6667L18.0449 7.07359L27.7526 9.11189L34.8067 2.19873L41.8607 9.11189L51.5685 7.07359L53.7293 16.6667L63.0085 20.1504L59.59 29.3778L65.4947 37.2775L57.5822 43.2094L58.2376 53.017L48.3433 53.7702L43.5414 62.3718L34.8067 57.7071Z" fill="white"/>
<path fill-rule="evenodd" clip-rule="evenodd" d="M34.8065 0.144043L42.3271 7.51444L52.6821 5.34025L54.9866 15.5713L64.8919 19.2901L61.2432 29.1387L67.5471 37.5725L59.0993 43.9059L59.7985 54.3697L49.2403 55.1734L44.1204 64.3445L34.8065 59.3705L25.4926 64.3445L20.3727 55.1734L9.81452 54.3697L10.5138 43.9059L2.06592 37.5725L8.36979 29.1387L4.72113 19.2901L14.6265 15.5713L16.931 5.34025L27.2859 7.51444L34.8065 0.144043ZM34.8065 4.25321L28.219 10.7091L19.1585 8.80673L17.1414 17.7619L8.48824 21.0106L11.6766 29.6167L6.17113 36.9822L13.5482 42.5128L12.9367 51.6641L22.167 52.3667L26.651 60.3988L34.8065 56.0434L42.962 60.3988L47.4461 52.3667L56.6764 51.6641L56.0649 42.5128L63.4419 36.9822L57.9365 29.6167L61.1248 21.0106L52.4717 17.7619L50.4546 8.80673L41.394 10.7091L34.8065 4.25321Z" fill="#FB6900"/>
</svg>
