<svg width="69" height="80" viewBox="0 0 69 80" fill="none" xmlns="http://www.w3.org/2000/svg">
<path d="M65.9722 14.7988C55.3789 11.8963 44.7235 7.37673 35.1576 1.72891C34.6495 1.42891 34.0189 1.42891 33.511 1.72891C23.6692 7.53898 13.5895 11.814 2.69549 14.7988C1.99173 14.9915 1.50391 15.6312 1.50391 16.3609V32.9092C1.50391 49.9503 9.36541 61.2303 15.9606 67.6921C23.0607 74.6492 31.3314 78.4966 34.3343 78.4966C37.3368 78.4966 45.6075 74.6492 52.7077 67.6921C59.3027 61.2304 67.1637 49.9504 67.1637 32.9092V16.3608C67.1637 15.6312 66.6759 14.9915 65.9722 14.7988Z" fill="white" stroke="#FB6900" stroke-width="3" stroke-linecap="round"/>
<path d="M23.1582 41.25L33.4049 48.9233L48.8555 29.7744" stroke="#FB6900" stroke-width="3" stroke-linecap="round"/>
</svg>
