<svg width="21" height="19" viewBox="0 0 21 19" fill="none" xmlns="http://www.w3.org/2000/svg">
<path d="M16.3131 1.449C14.3729 2.24108 10.0075 4.00035 6.61203 5.37608C-0.162305 8.10254 -0.0636494 8.05253 0.0185634 8.6778C0.0432272 8.86125 0.133662 9.0947 0.224095 9.17812C0.314529 9.26984 1.56416 9.80347 3.00289 10.362L5.61726 11.3793L6.33251 14.1224C6.72713 15.6315 7.08886 16.9489 7.1382 17.0573C7.25329 17.3074 7.7219 17.5408 7.99319 17.4658C8.10828 17.4408 8.87285 16.9322 9.69501 16.3402L11.1831 15.2564L13.9043 17.1323C16.2145 18.7165 16.6666 19 16.9215 19C17.2339 19 17.5381 18.8416 17.6615 18.5998C17.8012 18.3329 21.0568 0.806985 20.9992 0.598542C20.9746 0.481812 20.8595 0.298381 20.7527 0.18999C20.3827 -0.18521 20.1442 -0.118507 16.3131 1.449ZM15.8609 3.85861C15.5239 4.20045 13.559 6.11814 11.5037 8.11916C9.44834 10.1203 7.7219 11.8545 7.67257 11.9712L7.58214 12.1881L7.49171 11.9045C7.44238 11.7462 7.34373 11.3793 7.26974 11.0791C7.19574 10.7873 7.08065 10.4454 7.01487 10.3204C6.89156 10.0786 6.64492 9.96182 4.44161 9.1114C3.59482 8.77791 3.21664 8.60278 3.29063 8.55276C3.43862 8.46104 16.2885 3.25829 16.3954 3.24995C16.4364 3.24161 16.198 3.51676 15.8609 3.85861ZM18.7713 3.9253C18.7055 4.25882 18.1547 7.21873 17.5464 10.4955C16.9298 13.7722 16.4036 16.5237 16.3707 16.5987C16.3213 16.7237 15.7788 16.3819 13.0657 14.5143C11.2817 13.2887 9.8183 12.2381 9.8183 12.1964C9.8183 12.1047 18.7302 3.34167 18.8288 3.33332C18.8618 3.32499 18.8288 3.60013 18.7713 3.9253ZM8.85647 13.6555C9.26754 13.9389 9.61276 14.1974 9.61276 14.2391C9.61276 14.3225 8.4947 15.1646 8.3878 15.1646C8.35495 15.1646 8.19872 14.6893 8.05077 14.0974C7.90277 13.5137 7.76301 12.9801 7.73835 12.9135C7.71368 12.83 7.76301 12.8467 7.89455 12.9635C8.00146 13.0635 8.43711 13.372 8.85647 13.6555Z" fill="#FE5B00"/>
</svg>
